<?xml version="1.0" encoding="utf-8"?>
<!-- Generator: Adobe Illustrator 28.0.0, SVG Export Plug-In . SVG Version: 6.00 Build 0)  -->
<svg version="1.1" id="图层_1" xmlns="http://www.w3.org/2000/svg" xmlns:xlink="http://www.w3.org/1999/xlink" x="0px" y="0px"
	 viewBox="0 0 24 24" style="enable-background:new 0 0 24 24;" xml:space="preserve">
<style type="text/css">
	.st0{stroke:#000000;stroke-width:2;stroke-linecap:round;stroke-linejoin:round;}
	.st1{fill:#FFFFFF;stroke:#000000;stroke-width:2;stroke-linecap:round;stroke-linejoin:round;}
</style>
<g id="图层_1_00000144337739902898585330000003190843790313150142_">
	<g>
		<path class="st0" d="M20.4,8.9L20,8.7l-0.1-0.1c-0.3-0.2-0.5-0.4-0.7-0.7c0,0,0-0.1-0.1-0.1c-0.2-0.3-0.3-0.7-0.3-1.2V6.2
			c0-0.7,0-1-0.1-1.3c-0.1-0.3-0.2-0.5-0.4-0.7c-0.2-0.2-0.5-0.4-1.1-0.8l-0.5-0.3c-0.6-0.3-0.9-0.5-1.2-0.6s-0.6-0.1-0.8,0
			c-0.3,0.1-0.6,0.2-1.2,0.6l0,0l-0.4,0.2c-0.1,0-0.1,0-0.1,0.1c-0.3,0.2-0.6,0.2-0.9,0.2H12h-0.1c-0.3,0-0.6-0.1-0.9-0.3
			c0,0-0.1,0-0.1-0.1L10.5,3C9.9,2.9,9.6,2.7,9.3,2.6c-0.3,0-0.6,0-0.9,0C8.1,2.7,7.8,2.9,7.2,3.2l0,0L6.8,3.5l0,0
			C6.2,3.8,5.9,4,5.7,4.2C5.5,4.4,5.3,4.7,5.2,5c-0.1,0.3-0.1,0.6,0,1.3v0.4c0,0.1,0,0.1,0,0.1c0,0.4-0.1,0.7-0.3,1
			c0,0.1,0,0.1-0.1,0.1C4.6,8.3,4.4,8.5,4.1,8.7H4L3.7,8.9C3.1,9.3,2.8,9.4,2.5,9.7c-0.2,0.2-0.3,0.5-0.4,0.7C2,10.7,2,11,2,11.7
			v0.6c0,0.7,0,1,0.1,1.3s0.2,0.5,0.4,0.7S3,14.7,3.6,15L4,15.3c0.1,0,0.1,0.1,0.1,0.1c0.3,0.2,0.6,0.5,0.7,0.8l0.1,0.1
			c0.2,0.3,0.2,0.7,0.2,1v0.4c0,0.7,0,1,0.1,1.3s0.2,0.5,0.4,0.7c0.2,0.2,0.5,0.4,1.1,0.8l0.5,0.3c0.6,0.3,0.9,0.5,1.2,0.6
			s0.6,0.1,0.8,0c0.3-0.1,0.6-0.2,1.2-0.6l0.4-0.2l0.1-0.1c0.3-0.2,0.6-0.2,0.9-0.2h0.1H12c0.3,0,0.6,0.1,0.9,0.3l0.1,0.1l0.4,0.2
			c0.6,0.4,0.9,0.5,1.2,0.6s0.6,0.1,0.8,0c0.3-0.1,0.6-0.2,1.2-0.6l0.5-0.3c0.6-0.3,0.9-0.5,1.1-0.8c0.2-0.2,0.3-0.5,0.4-0.7
			c0.1-0.3,0.1-0.6,0.1-1.3v-0.4v-0.1c0-0.4,0.1-0.7,0.3-1l0.1-0.1c0.2-0.3,0.4-0.5,0.7-0.7l0.1-0.1l0,0l0.4-0.2
			c0.6-0.3,0.9-0.5,1.1-0.7s0.3-0.5,0.4-0.7C22,13.3,22,13,22,12.3v-0.6c0-0.7,0-1-0.1-1.3s-0.2-0.5-0.4-0.7
			C21.2,9.4,20.9,9.3,20.4,8.9L20.4,8.9z"/>
		<path class="st1" d="M15.9,11.3c-0.4-2.2-2.5-3.6-4.6-3.3s-3.6,2.5-3.3,4.6s2.5,3.6,4.6,3.3C14.9,15.6,16.3,13.5,15.9,11.3"/>
	</g>
</g>
</svg>
